<svg width="253" height="86" viewBox="0 0 253 86" fill="none" xmlns="http://www.w3.org/2000/svg">
<path d="M91.3649 32.8021H95.4722V57H91.3649V32.8021ZM177.493 32.8021H181.6V57H177.493V32.8021Z" fill="#12C65A"/>
<path d="M103.972 38.8887C103.972 39.9113 104.352 40.6536 105.11 41.1155C105.869 41.6763 107.486 42.2536 109.96 42.8474C112.566 43.4742 114.463 44.332 115.651 45.4206C116.871 46.5093 117.481 48.0763 117.481 50.1216C117.481 52.266 116.673 53.9979 115.057 55.3175C113.473 56.6371 111.395 57.2969 108.822 57.2969C105.094 57.2969 101.729 55.9773 98.7268 53.3381L101.3 50.2701C103.807 52.4144 106.347 53.4866 108.921 53.4866C110.207 53.4866 111.246 53.2062 112.038 52.6454C112.83 52.0515 113.226 51.2928 113.226 50.3691C113.226 49.4454 112.863 48.7196 112.137 48.1918C111.444 47.6639 110.191 47.1856 108.376 46.7567C105.242 46.0309 103.065 45.1732 101.844 44.1835C100.426 43.0948 99.7165 41.4289 99.7165 39.1856C99.7165 37.0082 100.508 35.3093 102.092 34.0887C103.675 32.8351 105.704 32.2082 108.178 32.2082C111.51 32.2082 114.364 33.1814 116.739 35.1278L114.562 38.1959C113.836 37.5361 112.863 37.0082 111.642 36.6124C110.422 36.1835 109.218 35.9691 108.03 35.9691C106.809 35.9691 105.82 36.233 105.061 36.7608C104.335 37.2557 103.972 37.9649 103.972 38.8887ZM195.989 36.5134V57H191.882V36.5134H184.558V32.8021H203.313V36.5134H195.989Z" fill="#D12266"/>
<path d="M124.524 51.5072L122.1 57H117.745L128.434 32.8021H132.788L143.427 57H139.073L136.648 51.5072H124.524ZM135.015 47.6969L130.611 37.7505L126.207 47.6969H135.015Z" fill="#762FE8"/>
<path d="M171.297 50.3196L173.92 52.9918C171.412 55.8619 168.311 57.2969 164.617 57.2969C160.955 57.2969 157.903 56.1258 155.462 53.7835C153.054 51.4082 151.85 48.4227 151.85 44.8268C151.85 41.1979 153.087 38.1959 155.561 35.8206C158.035 33.4124 161.153 32.2082 164.913 32.2082C168.608 32.2082 171.726 33.5938 174.266 36.3649L171.693 39.1856C170.538 38.0639 169.45 37.2887 168.427 36.8598C167.404 36.4309 166.2 36.2165 164.815 36.2165C162.34 36.2165 160.262 37.0082 158.579 38.5918C156.93 40.1753 156.105 42.1876 156.105 44.6289C156.105 47.0371 156.93 49.0825 158.579 50.7649C160.229 52.4474 162.192 53.2887 164.468 53.2887C165.854 53.2887 167.041 53.0577 168.031 52.5959C169.054 52.134 170.142 51.3753 171.297 50.3196ZM233.541 51.5072L231.116 57H226.761L237.45 32.8021H241.805L252.444 57H248.089L245.664 51.5072H233.541ZM244.031 47.6969L239.627 37.7505L235.223 47.6969H244.031Z" fill="#00A8FF"/>
<path d="M220.451 48.1918L226.785 57H221.589L215.799 48.8351H210.455V57H206.347V32.8021H215.354C219.015 32.8021 221.638 33.4289 223.222 34.6825C224.838 35.9031 225.646 37.899 225.646 40.6701C225.646 44.6619 223.914 47.1691 220.451 48.1918ZM215.502 45.1732C217.778 45.1732 219.345 44.8268 220.203 44.134C221.061 43.4412 221.49 42.2701 221.49 40.6206C221.49 39.0371 221.061 37.9649 220.203 37.4041C219.345 36.8103 217.811 36.5134 215.601 36.5134H210.455V45.1732H215.502Z" fill="#7F00FF"/>
<path fill-rule="evenodd" clip-rule="evenodd" d="M28.8754 17.7766L28.8505 17.7685C28.7927 17.4963 28.629 17.259 28.3746 17.1238C28.3519 17.1116 28.3288 17.1006 28.3054 17.0906C28.2903 17.08 28.2744 17.0704 28.2578 17.0616C28.1385 16.9983 27.9976 16.9852 27.8451 17.0159C27.4779 17.0438 27.1141 17.2661 26.9046 17.6308L26.8993 17.64C26.732 17.823 26.5731 18.0396 26.4336 18.2823C26.4018 18.3378 26.3716 18.3934 26.3431 18.4491C26.2712 18.55 26.2026 18.6571 26.138 18.7693C26.0697 18.8881 26.0093 19.0074 25.9567 19.1258C25.9349 19.1499 25.913 19.1741 25.8912 19.1988C25.3916 20.1682 24.9769 21.1403 24.6413 22.1105C24.6404 22.0881 24.6396 22.0658 24.6388 22.0434C21.3013 27.9682 22.258 36.6476 26.8684 41.6322C31.2665 46.3882 37.4136 46.0773 41.1082 41.1538C42.4806 39.7512 43.3019 37.9692 43.3019 36.0297C43.3029 35.0466 43.0882 34.0769 42.6746 33.1667C41.1569 31.1194 39.412 29.8101 38.6037 29.2778C34.7513 26.7405 32.3352 24.4944 30.8718 22.527L30.8716 22.5276C30.8619 22.5513 30.8522 22.575 30.8423 22.5986C30.8409 22.5593 30.8391 22.5201 30.8374 22.481L30.8374 22.4807L30.8374 22.4806C29.5102 20.6819 28.9802 19.117 28.8754 17.7766Z" fill="#12C65A"/>
<path fill-rule="evenodd" clip-rule="evenodd" d="M38.128 17.7766L38.153 17.7685C38.2108 17.4963 38.3744 17.259 38.6288 17.1238C38.6515 17.1116 38.6746 17.1006 38.698 17.0906C38.7132 17.08 38.7291 17.0704 38.7457 17.0616C38.8649 16.9983 39.0058 16.9852 39.1583 17.0159C39.5255 17.0438 39.8893 17.2661 40.0989 17.6308L40.1041 17.64C40.2714 17.823 40.4303 18.0396 40.5698 18.2823C40.6016 18.3378 40.6318 18.3934 40.6603 18.4491C40.7322 18.55 40.8009 18.6571 40.8655 18.7693C40.9338 18.8881 40.9942 19.0074 41.0467 19.1258C41.0686 19.1499 41.0904 19.1741 41.1122 19.1988C41.6119 20.1682 42.0265 21.1404 42.3622 22.1106C42.3631 22.0882 42.3639 22.0658 42.3647 22.0434C45.7022 27.9682 44.7455 36.6476 40.135 41.6322C35.737 46.3882 29.5901 46.0774 25.8955 41.154C24.5229 39.7514 23.7016 37.9693 23.7016 36.0297C23.7005 35.0466 23.9152 34.0769 24.3288 33.1667C25.8466 31.1194 27.5915 29.8101 28.3998 29.2778C32.2521 26.7405 34.6682 24.4944 36.1316 22.527L36.1319 22.5276C36.1416 22.5513 36.1513 22.575 36.1611 22.5986C36.1625 22.5592 36.1643 22.5199 36.166 22.4807L36.166 22.4806C37.4932 20.6819 38.0232 19.117 38.128 17.7766Z" fill="#7F00FF"/>
<g filter="url(#filter0_d_21_2)">
<path fill-rule="evenodd" clip-rule="evenodd" d="M32.957 38.4216C33.3541 48.7825 36.6703 59.6752 42.7993 65.5602C44.5033 66.8496 46.5177 67.7725 48.6619 68.2425C53.7218 69.3597 58.607 67.8323 61.4418 64.6699C63.2214 61.06 63.5646 57.0472 63.6173 55.573C63.7996 50.4886 64.3543 46.9199 65.0985 44.4068C65.0861 44.4096 65.0737 44.4126 65.0613 44.4154C65.0538 44.4172 65.0461 44.4189 65.0386 44.4206C65.0646 44.3964 65.0905 44.3721 65.1162 44.3476C65.8007 42.0598 66.6435 40.6555 67.5035 39.7802C67.5021 39.7708 67.5007 39.7614 67.4991 39.7521C67.6595 39.5401 67.7543 39.249 67.7445 38.9319C67.7436 38.9036 67.7421 38.8755 67.7394 38.8477C67.7405 38.8275 67.7407 38.8068 67.7401 38.7862C67.7356 38.6376 67.6886 38.4979 67.6076 38.3729C67.4436 38.0446 67.1501 37.8321 66.8219 37.8469L66.8136 37.8473C66.6244 37.7966 66.4157 37.773 66.1973 37.783C66.1473 37.7853 66.0979 37.7891 66.0492 37.7947C65.953 37.7858 65.8538 37.7833 65.7527 37.7879C65.646 37.7928 65.5417 37.8052 65.4413 37.8246C65.4165 37.8179 65.3916 37.8116 65.3664 37.8054C57.4624 38.6741 52.3119 46.5694 50.4812 54.9219C50.1919 51.7486 50.0701 47.8572 50.1821 43.0804C50.2046 42.1234 50.1962 40.4526 50.02 38.4216H46.8914C46.8816 38.5266 46.8718 38.6235 46.8624 38.712C46.2639 44.3195 46.2442 48.3332 46.5617 51.224L46.5323 51.2099L46.5077 51.198C46.517 51.2121 46.5264 51.2263 46.5356 51.2406L46.5528 51.2668L46.5692 51.2921C46.8652 53.9248 47.4427 55.618 48.1167 56.7342C48.115 56.7404 48.1132 56.7463 48.1115 56.7524L48.1082 56.7643C48.2264 57.0259 48.2713 57.3624 48.2142 57.7082C48.2091 57.7391 48.2034 57.7694 48.1967 57.7995C48.1946 57.822 48.1917 57.8445 48.188 57.8671C48.1613 58.0293 48.0961 58.1737 48.0011 58.2963C47.7977 58.6263 47.4905 58.8059 47.1851 58.7299L47.1774 58.7278C46.9923 58.7491 46.793 58.7369 46.5898 58.6862C46.5432 58.6747 46.4976 58.6614 46.4527 58.6464C46.361 58.6386 46.2678 58.6232 46.1738 58.5998C46.0743 58.5752 45.9786 58.5425 45.8873 58.5031C45.8768 58.5043 45.8665 58.5053 45.856 58.5064C45.8521 58.5067 45.8483 58.5071 45.8445 58.5076C45.8406 58.508 45.8368 58.5083 45.8331 58.5086L45.8141 58.5104C38.8895 56.236 35.2632 47.4433 34.5366 38.4216H32.957Z" fill="#8000FF"/>
</g>
<g filter="url(#filter1_d_21_2)">
<path fill-rule="evenodd" clip-rule="evenodd" d="M35.7882 38.4216C35.3911 48.7825 32.0749 59.6752 25.9459 65.5602C24.2419 66.8496 22.2275 67.7725 20.0833 68.2425C15.0234 69.3597 10.1382 67.8323 7.3034 64.6699C5.52376 61.06 5.18061 57.0472 5.12787 55.573C4.94556 50.4886 4.39094 46.9199 3.64667 44.4068C3.65907 44.4096 3.67147 44.4126 3.68387 44.4154C3.69138 44.4172 3.69906 44.4189 3.70657 44.4206C3.68055 44.3964 3.65471 44.3721 3.62903 44.3476C2.94449 42.0598 2.10168 40.6555 1.24161 39.7802C1.24305 39.7708 1.24455 39.7614 1.24608 39.7521C1.08576 39.5401 0.990986 39.249 1.00068 38.9319C1.00153 38.9036 1.00323 38.8755 1.00569 38.8477C1.0047 38.8275 1.0045 38.8068 1.00513 38.7862C1.00967 38.6376 1.05663 38.4979 1.13761 38.3729C1.30165 38.0446 1.59512 37.8321 1.92326 37.8469L1.93159 37.8473C2.12085 37.7966 2.32943 37.773 2.54786 37.783C2.59787 37.7853 2.64725 37.7891 2.69592 37.7947C2.79221 37.7858 2.89135 37.7833 2.99251 37.7879C3.09921 37.7928 3.20346 37.8052 3.30388 37.8246C3.32867 37.8179 3.35365 37.8116 3.37879 37.8054C11.2828 38.6741 16.4333 46.5694 18.264 54.9219C18.5533 51.7486 18.6751 47.8572 18.5631 43.0804C18.5406 42.1234 18.549 40.4526 18.7252 38.4216H21.8538C21.8636 38.5266 21.8734 38.6235 21.8828 38.712C22.4813 44.3195 22.501 48.3332 22.1835 51.224L22.2129 51.2099L22.2375 51.198C22.2282 51.2121 22.2188 51.2263 22.2095 51.2406L22.1924 51.2668L22.176 51.2921C21.88 53.9248 21.3025 55.618 20.6285 56.7342C20.6302 56.7404 20.6319 56.7463 20.6337 56.7524L20.637 56.7643C20.5188 57.0259 20.4739 57.3624 20.531 57.7082C20.5361 57.7391 20.5418 57.7694 20.5485 57.7995C20.5506 57.822 20.5535 57.8445 20.5572 57.8671C20.5839 58.0293 20.6491 58.1737 20.7441 58.2963C20.9475 58.6263 21.2547 58.8059 21.5601 58.7299L21.5678 58.7278C21.7529 58.7491 21.9521 58.7369 22.1554 58.6862C22.202 58.6747 22.2478 58.6614 22.2925 58.6464C22.3842 58.6386 22.4774 58.6232 22.5714 58.5998C22.6709 58.5752 22.7666 58.5425 22.8579 58.5031C22.8684 58.5043 22.8787 58.5053 22.8892 58.5064C22.893 58.5067 22.8969 58.5071 22.9007 58.5076C22.9046 58.508 22.9084 58.5083 22.9121 58.5086L22.9311 58.5104C29.8557 56.236 33.482 47.4433 34.2086 38.4216H35.7882Z" fill="#12C65A"/>
</g>
<path fill-rule="evenodd" clip-rule="evenodd" d="M22.5888 21.6185L22.5638 21.6105C22.506 21.3382 22.3424 21.1009 22.088 20.9657C22.0653 20.9535 22.0422 20.9425 22.0188 20.9326C22.0036 20.9219 21.9877 20.9123 21.9711 20.9036C21.8519 20.8402 21.7109 20.8271 21.5585 20.8578C21.1913 20.8858 20.8275 21.1081 20.6179 21.4727L20.6127 21.4819C20.4454 21.6649 20.2865 21.8815 20.147 22.1242C20.1152 22.1798 20.085 22.2353 20.0565 22.291C19.9846 22.3919 19.9159 22.499 19.8513 22.6113C19.783 22.73 19.7226 22.8493 19.6701 22.9677C19.6482 22.9918 19.6264 23.0161 19.6046 23.0407C19.1049 24.0101 18.6903 24.9823 18.3546 25.9525C18.3537 25.9301 18.3529 25.9077 18.3521 25.8852C15.0146 31.81 15.9713 40.4894 20.5818 45.474C24.98 50.2302 31.1273 49.9191 34.8218 44.9951C36.1941 43.5926 37.0152 41.8108 37.0152 39.8714C37.0162 38.8884 36.8016 37.9189 36.3881 37.0088C34.8703 34.9614 33.1254 33.652 32.317 33.1197C28.4647 30.5824 26.0486 28.3363 24.5852 26.3689L24.5849 26.3695C24.5752 26.3932 24.5655 26.417 24.5557 26.4405C24.5543 26.4011 24.5525 26.3619 24.5508 26.3226L24.5508 26.3225C23.2236 24.5238 22.6936 22.9589 22.5888 21.6185Z" fill="#D12266"/>
<path fill-rule="evenodd" clip-rule="evenodd" d="M45.6371 21.0944L45.6621 21.0864C45.7199 20.8142 45.8835 20.5768 46.138 20.4417C46.1607 20.4295 46.1837 20.4185 46.2071 20.4085C46.2223 20.3979 46.2382 20.3883 46.2548 20.3795C46.3741 20.3161 46.515 20.303 46.6675 20.3338C47.0347 20.3617 47.3985 20.584 47.608 20.9486L47.6132 20.9579C47.7805 21.1409 47.9395 21.3574 48.079 21.6002C48.1108 21.6557 48.141 21.7112 48.1694 21.7669C48.2414 21.8679 48.31 21.9749 48.3746 22.0872C48.4429 22.206 48.5033 22.3252 48.5559 22.4436C48.5777 22.4677 48.5996 22.492 48.6214 22.5166C49.121 23.4861 49.5357 24.4582 49.8714 25.4285C49.8722 25.4061 49.8731 25.3836 49.8739 25.3612C53.2114 31.286 52.2547 39.9654 47.6442 44.9499C43.2463 49.7058 37.0995 49.3951 33.4049 44.4721C32.0322 43.0694 31.2108 41.2873 31.2108 39.3476C31.2097 38.3644 31.4245 37.3946 31.8382 36.4843C33.3559 34.4371 35.1006 33.1279 35.9089 32.5957C39.7612 30.0583 42.1774 27.8122 43.6408 25.8449L43.641 25.8454L43.6411 25.8455C43.6507 25.8692 43.6604 25.8929 43.6703 25.9165C43.6717 25.8772 43.6734 25.838 43.6752 25.7989L43.6752 25.7986L43.6752 25.7984C45.0024 23.9997 45.5324 22.4349 45.6371 21.0944Z" fill="#00A8FF"/>
<defs>
<filter id="filter0_d_21_2" x="32.2585" y="37.7808" width="36.1852" height="32.2229" filterUnits="userSpaceOnUse" color-interpolation-filters="sRGB">
<feFlood flood-opacity="0" result="BackgroundImageFix"/>
<feColorMatrix in="SourceAlpha" type="matrix" values="0 0 0 0 0 0 0 0 0 0 0 0 0 0 0 0 0 0 127 0" result="hardAlpha"/>
<feOffset dy="0.698515"/>
<feGaussianBlur stdDeviation="0.349258"/>
<feComposite in2="hardAlpha" operator="out"/>
<feColorMatrix type="matrix" values="0 0 0 0 0 0 0 0 0 0 0 0 0 0 0 0 0 0 0.25 0"/>
<feBlend mode="normal" in2="BackgroundImageFix" result="effect1_dropShadow_21_2"/>
<feBlend mode="normal" in="SourceGraphic" in2="effect1_dropShadow_21_2" result="shape"/>
</filter>
<filter id="filter1_d_21_2" x="0.301485" y="37.7808" width="36.1852" height="32.2229" filterUnits="userSpaceOnUse" color-interpolation-filters="sRGB">
<feFlood flood-opacity="0" result="BackgroundImageFix"/>
<feColorMatrix in="SourceAlpha" type="matrix" values="0 0 0 0 0 0 0 0 0 0 0 0 0 0 0 0 0 0 127 0" result="hardAlpha"/>
<feOffset dy="0.698515"/>
<feGaussianBlur stdDeviation="0.349258"/>
<feComposite in2="hardAlpha" operator="out"/>
<feColorMatrix type="matrix" values="0 0 0 0 0 0 0 0 0 0 0 0 0 0 0 0 0 0 0.25 0"/>
<feBlend mode="normal" in2="BackgroundImageFix" result="effect1_dropShadow_21_2"/>
<feBlend mode="normal" in="SourceGraphic" in2="effect1_dropShadow_21_2" result="shape"/>
</filter>
</defs>
</svg>
