<svg width="100" height="100" viewBox="0 0 100 100" fill="none" xmlns="http://www.w3.org/2000/svg">
<path d="M100 50C100 77.6142 77.6142 100 50 100C22.3858 100 0 77.6142 0 50C0 22.3858 22.3858 0 50 0C77.6142 0 100 22.3858 100 50Z" fill="#262BA1"/>
<path fill-rule="evenodd" clip-rule="evenodd" d="M85.2344 85.4758C94.3537 76.4183 100 63.8685 100 50C100 22.3858 77.6142 0 50 0C22.3858 0 0 22.3858 0 50C0 64.197 5.917 77.0121 15.4195 86.1136C20.4332 76.5763 30.4414 70.0556 41.9444 70.0556H59.0556C70.2974 70.0556 80.1148 76.2868 85.2344 85.4758ZM50.5 61.5C39.8868 61.5 31.25 52.8632 31.25 42.25C31.25 31.6368 39.8868 23 50.5 23C61.1132 23 69.75 31.6368 69.75 42.25C69.75 52.8632 61.1132 61.5 50.5 61.5Z" fill="#C4C4C4"/>
</svg>
