<svg width="357" height="229" viewBox="0 0 357 229" fill="none" xmlns="http://www.w3.org/2000/svg">
<g clip-path="url(#clip0_376_24)">
<rect width="357" height="229" fill="#020202"/>
<g clip-path="url(#clip1_376_24)">
<path d="M173.942 154.813C178.905 154.813 183.821 153.835 188.407 151.936C192.993 150.036 197.16 147.252 200.67 143.742C204.18 140.232 206.965 136.065 208.864 131.479C210.764 126.893 211.742 121.977 211.742 117.013C211.742 112.049 210.764 107.134 208.864 102.548C206.965 97.9617 204.18 93.7946 200.67 90.2846C197.16 86.7745 192.993 83.9902 188.407 82.0906C183.821 80.1909 178.905 79.2132 173.942 79.2132C163.916 79.2132 154.302 83.1957 147.213 90.2846C140.124 97.3734 136.142 106.988 136.142 117.013C136.142 127.038 140.124 136.653 147.213 143.742C154.302 150.831 163.916 154.813 173.942 154.813ZM174 66C185.065 65.9964 195.823 69.6339 204.615 76.3513C213.407 83.0687 219.744 92.4926 222.649 103.169C225.554 113.846 224.864 125.181 220.687 135.427C216.51 145.673 209.078 154.259 199.536 159.862C230.516 169.186 253.784 195.293 257.958 227.717C258.353 230.8 256.06 233.597 252.834 233.975C249.617 234.353 246.677 232.169 246.282 229.086C241.746 193.89 211.263 167.388 174.294 167.388C137.124 167.388 106.246 193.94 101.718 229.086C101.324 232.169 98.3835 234.353 95.1663 233.975C91.9407 233.597 89.6475 230.8 90.0423 227.717C94.2087 195.427 117.603 169.354 148.632 159.946C139.062 154.369 131.596 145.794 127.387 135.548C123.179 125.302 122.463 113.955 125.351 103.261C128.239 92.5675 134.569 83.1229 143.362 76.3877C152.156 69.6525 162.924 66.0018 174 66Z" fill="#7F7474"/>
</g>
</g>
<defs>
<clipPath id="clip0_376_24">
<rect width="357" height="229" fill="white"/>
</clipPath>
<clipPath id="clip1_376_24">
<rect width="168" height="168" fill="white" transform="translate(90 66)"/>
</clipPath>
</defs>
</svg>
