<svg width="310" height="309" viewBox="0 0 310 309" fill="none" xmlns="http://www.w3.org/2000/svg">
<path d="M155 227.517C132.961 227.517 111.418 220.845 93.0932 208.345C74.7687 195.845 60.4865 178.079 52.0527 157.292C43.6189 136.505 41.4122 113.632 45.7118 91.5654C50.0113 69.4984 60.6239 49.2285 76.2076 33.3191C91.7912 17.4097 111.646 6.57528 133.261 2.18589C154.876 -2.20351 177.281 0.0492897 197.642 8.6594C218.003 17.2695 235.406 31.8502 247.65 50.5577C259.894 69.2652 266.429 91.2592 266.429 113.759C266.429 143.929 254.69 172.864 233.792 194.198C212.895 215.532 184.553 227.517 155 227.517ZM155 16.2513C136.11 16.2513 117.644 21.97 101.937 32.6842C86.2303 43.3984 73.9885 58.627 66.7595 76.4441C59.5305 94.2612 57.6391 113.867 61.3244 132.781C65.0097 151.696 74.1062 169.07 87.4636 182.707C100.821 196.343 117.839 205.63 136.367 209.392C154.894 213.155 174.098 211.224 191.55 203.843C209.003 196.463 223.92 183.966 234.414 167.931C244.909 151.896 250.511 133.044 250.511 113.759C250.511 87.898 240.448 63.0966 222.536 44.8105C204.625 26.5243 180.331 16.2513 155 16.2513Z" fill="#B28511"/>
<path d="M191.533 162.512L147.041 117.09V40.628H162.959V110.346L202.755 151.055L191.533 162.512Z" fill="#B28511"/>
<path d="M5.712 296.517C5.072 296.517 4.48 296.373 3.936 296.085C3.424 295.797 3.168 295.381 3.168 294.837V263.061C3.168 262.485 3.424 262.069 3.936 261.813C4.48 261.557 5.072 261.429 5.712 261.429C6.352 261.429 6.928 261.557 7.44 261.813C7.984 262.069 8.256 262.485 8.256 263.061V294.837C8.256 295.381 7.984 295.797 7.44 296.085C6.928 296.373 6.352 296.517 5.712 296.517ZM22.2878 296.517C19.5678 296.517 17.4878 295.925 16.0478 294.741C14.6078 293.525 13.8878 291.621 13.8878 289.029V264.981C13.8878 264.501 14.1438 264.117 14.6558 263.829C15.1998 263.509 15.7758 263.349 16.3838 263.349C16.9918 263.349 17.5678 263.509 18.1118 263.829C18.6558 264.117 18.9278 264.501 18.9278 264.981V273.765H24.7838C25.2318 273.765 25.5678 273.957 25.7918 274.341C26.0478 274.725 26.1758 275.157 26.1758 275.637C26.1758 276.117 26.0478 276.549 25.7918 276.933C25.5678 277.317 25.2318 277.509 24.7838 277.509H18.9278V289.029C18.9278 290.181 19.1678 290.997 19.6478 291.477C20.1598 291.957 21.0398 292.197 22.2878 292.197H23.9198C24.6558 292.197 25.1998 292.421 25.5518 292.869C25.9358 293.285 26.1278 293.781 26.1278 294.357C26.1278 294.901 25.9358 295.397 25.5518 295.845C25.1998 296.293 24.6558 296.517 23.9198 296.517H22.2878ZM30.648 270.933C30.264 270.933 29.88 270.821 29.496 270.597C29.112 270.341 28.92 269.989 28.92 269.541C28.92 269.317 28.968 269.125 29.064 268.965L30.12 266.421C29.64 266.165 29.24 265.813 28.92 265.365C28.632 264.917 28.488 264.405 28.488 263.829C28.488 263.029 28.76 262.357 29.304 261.813C29.848 261.237 30.52 260.949 31.32 260.949C32.088 260.949 32.744 261.237 33.288 261.813C33.864 262.357 34.152 263.013 34.152 263.781C34.152 263.941 34.12 264.165 34.056 264.453C33.992 264.741 33.864 265.125 33.672 265.605C33.512 266.053 33.272 266.661 32.952 267.429C32.664 268.165 32.264 269.093 31.752 270.213C31.656 270.469 31.496 270.661 31.272 270.789C31.048 270.885 30.84 270.933 30.648 270.933ZM44.5219 296.901C42.9539 296.901 41.5459 296.709 40.2979 296.325C39.0499 295.941 38.0579 295.461 37.3219 294.885C36.6179 294.277 36.2659 293.669 36.2659 293.061C36.2659 292.773 36.3299 292.453 36.4579 292.101C36.6179 291.749 36.8259 291.445 37.0819 291.189C37.3699 290.933 37.6739 290.805 37.9939 290.805C38.4099 290.805 38.8419 290.997 39.2899 291.381C39.7699 291.733 40.3939 292.101 41.1619 292.485C41.9299 292.837 43.0019 293.013 44.3779 293.013C45.9779 293.013 47.0499 292.741 47.5939 292.197C48.1699 291.653 48.4579 291.061 48.4579 290.421C48.4579 289.589 48.1699 288.949 47.5939 288.501C47.0499 288.021 46.3299 287.637 45.4339 287.349C44.5699 287.061 43.6419 286.789 42.6499 286.533C41.6579 286.245 40.7139 285.877 39.8179 285.429C38.9539 284.981 38.2339 284.357 37.6579 283.557C37.1139 282.757 36.8419 281.701 36.8419 280.389C36.8419 279.301 37.1139 278.229 37.6579 277.173C38.2019 276.085 39.0659 275.205 40.2499 274.533C41.4659 273.829 43.0819 273.477 45.0979 273.477C46.3139 273.477 47.4659 273.605 48.5539 273.861C49.6419 274.117 50.5379 274.469 51.2419 274.917C51.9459 275.333 52.2979 275.797 52.2979 276.309C52.2979 276.533 52.2179 276.853 52.0579 277.269C51.8979 277.653 51.6739 278.005 51.3859 278.325C51.1299 278.613 50.7939 278.757 50.3779 278.757C50.0579 278.757 49.6579 278.645 49.1779 278.421C48.6979 278.165 48.1379 277.925 47.4979 277.701C46.8579 277.477 46.0739 277.365 45.1459 277.365C44.2179 277.365 43.4659 277.525 42.8899 277.845C42.3459 278.133 41.9459 278.485 41.6899 278.901C41.4339 279.317 41.3059 279.733 41.3059 280.149C41.3059 280.853 41.5779 281.397 42.1219 281.781C42.6659 282.165 43.3859 282.485 44.2819 282.741C45.1779 282.997 46.1219 283.269 47.1139 283.557C48.1059 283.813 49.0339 284.197 49.8979 284.709C50.7939 285.221 51.5139 285.909 52.0579 286.773C52.6339 287.637 52.9219 288.789 52.9219 290.229C52.9219 292.245 52.1859 293.861 50.7139 295.077C49.2739 296.293 47.2099 296.901 44.5219 296.901ZM69.7433 296.517C69.1033 296.517 68.5113 296.373 67.9673 296.085C67.4553 295.797 67.1992 295.381 67.1992 294.837V263.109C67.1992 262.501 67.4553 262.069 67.9673 261.813C68.5113 261.557 69.1033 261.429 69.7433 261.429C70.3513 261.429 70.8633 261.525 71.2793 261.717C71.7273 261.877 72.1273 262.165 72.4793 262.581C72.8313 262.997 73.1993 263.573 73.5833 264.309L84.2393 285.093V263.061C84.2393 262.485 84.4953 262.069 85.0073 261.813C85.5513 261.557 86.1433 261.429 86.7833 261.429C87.4233 261.429 87.9993 261.557 88.5113 261.813C89.0553 262.069 89.3273 262.485 89.3273 263.061V294.837C89.3273 295.381 89.0553 295.797 88.5113 296.085C87.9993 296.373 87.4233 296.517 86.7833 296.517C86.1433 296.517 85.5673 296.357 85.0553 296.037C84.5433 295.717 84.1113 295.253 83.7593 294.645L72.2873 272.805V294.837C72.2873 295.381 72.0153 295.797 71.4713 296.085C70.9593 296.373 70.3833 296.517 69.7433 296.517ZM104.007 296.901C102.279 296.901 100.663 296.453 99.1586 295.557C97.6546 294.661 96.4386 293.493 95.5106 292.053C94.6146 290.581 94.1666 289.013 94.1666 287.349V282.933C94.1666 281.237 94.5986 279.669 95.4626 278.229C96.3586 276.789 97.5586 275.637 99.0626 274.773C100.599 273.909 102.263 273.477 104.055 273.477C105.847 273.477 107.495 273.909 108.999 274.773C110.503 275.605 111.703 276.741 112.599 278.181C113.527 279.589 113.991 281.173 113.991 282.933V287.349C113.991 288.981 113.527 290.533 112.599 292.005C111.703 293.477 110.487 294.661 108.951 295.557C107.447 296.453 105.799 296.901 104.007 296.901ZM104.055 292.437C104.951 292.437 105.767 292.197 106.503 291.717C107.239 291.237 107.831 290.613 108.279 289.845C108.727 289.045 108.951 288.213 108.951 287.349V282.933C108.951 282.101 108.727 281.301 108.279 280.533C107.831 279.765 107.239 279.141 106.503 278.661C105.767 278.181 104.951 277.941 104.055 277.941C103.127 277.941 102.295 278.181 101.559 278.661C100.855 279.141 100.279 279.765 99.8306 280.533C99.4146 281.301 99.2066 282.101 99.2066 282.933V287.349C99.2066 288.213 99.4146 289.045 99.8306 289.845C100.279 290.613 100.871 291.237 101.607 291.717C102.343 292.197 103.159 292.437 104.055 292.437ZM126.678 296.517C123.958 296.517 121.878 295.925 120.438 294.741C118.998 293.525 118.278 291.621 118.278 289.029V264.981C118.278 264.501 118.534 264.117 119.046 263.829C119.59 263.509 120.166 263.349 120.774 263.349C121.382 263.349 121.958 263.509 122.502 263.829C123.046 264.117 123.318 264.501 123.318 264.981V273.765H129.174C129.622 273.765 129.958 273.957 130.182 274.341C130.438 274.725 130.566 275.157 130.566 275.637C130.566 276.117 130.438 276.549 130.182 276.933C129.958 277.317 129.622 277.509 129.174 277.509H123.318V289.029C123.318 290.181 123.558 290.997 124.038 291.477C124.55 291.957 125.43 292.197 126.678 292.197H128.31C129.046 292.197 129.59 292.421 129.942 292.869C130.326 293.285 130.518 293.781 130.518 294.357C130.518 294.901 130.326 295.397 129.942 295.845C129.59 296.293 129.046 296.517 128.31 296.517H126.678ZM154.584 296.805C152.536 296.805 150.696 296.453 149.064 295.749C147.464 295.045 146.184 293.909 145.224 292.341C144.296 290.773 143.832 288.693 143.832 286.101V272.133C143.832 269.541 144.296 267.461 145.224 265.893C146.184 264.325 147.464 263.189 149.064 262.485C150.696 261.781 152.536 261.429 154.584 261.429C156.6 261.429 158.424 261.781 160.056 262.485C161.688 263.189 162.984 264.325 163.944 265.893C164.904 267.461 165.384 269.541 165.384 272.133V286.101C165.384 288.693 164.904 290.773 163.944 292.341C162.984 293.909 161.688 295.045 160.056 295.749C158.424 296.453 156.6 296.805 154.584 296.805ZM154.584 292.293C156.344 292.293 157.736 291.797 158.76 290.805C159.784 289.781 160.296 288.213 160.296 286.101V272.133C160.296 270.021 159.784 268.469 158.76 267.477C157.768 266.453 156.376 265.941 154.584 265.941C152.792 265.941 151.384 266.453 150.36 267.477C149.368 268.469 148.872 270.021 148.872 272.133V286.101C148.872 288.213 149.368 289.781 150.36 290.805C151.384 291.797 152.792 292.293 154.584 292.293ZM173.183 307.317C172.479 307.317 171.887 307.141 171.407 306.789C170.959 306.437 170.735 306.053 170.735 305.637V275.397C170.735 274.917 170.959 274.533 171.407 274.245C171.887 273.925 172.463 273.765 173.135 273.765C173.807 273.765 174.367 273.925 174.815 274.245C175.263 274.533 175.487 274.917 175.487 275.397V277.125C176.031 276.197 176.847 275.365 177.935 274.629C179.055 273.861 180.383 273.477 181.919 273.477C183.519 273.477 184.975 273.909 186.287 274.773C187.599 275.605 188.639 276.741 189.407 278.181C190.175 279.589 190.559 281.173 190.559 282.933V287.349C190.559 289.013 190.159 290.581 189.359 292.053C188.591 293.493 187.567 294.661 186.287 295.557C185.007 296.453 183.615 296.901 182.111 296.901C180.671 296.901 179.375 296.533 178.223 295.797C177.071 295.029 176.255 294.149 175.775 293.157V305.637C175.775 306.053 175.519 306.437 175.007 306.789C174.527 307.141 173.919 307.317 173.183 307.317ZM180.623 292.437C181.487 292.437 182.287 292.197 183.023 291.717C183.759 291.237 184.351 290.597 184.799 289.797C185.279 288.997 185.519 288.181 185.519 287.349V282.933C185.519 282.101 185.295 281.301 184.847 280.533C184.399 279.765 183.791 279.141 183.023 278.661C182.287 278.181 181.455 277.941 180.527 277.941C179.759 277.941 179.007 278.149 178.271 278.565C177.535 278.949 176.927 279.509 176.447 280.245C175.999 280.981 175.775 281.877 175.775 282.933V288.453C175.775 288.837 175.983 289.349 176.399 289.989C176.815 290.597 177.391 291.157 178.127 291.669C178.863 292.181 179.695 292.437 180.623 292.437ZM205.24 296.901C203.064 296.901 201.144 296.501 199.48 295.701C197.816 294.901 196.504 293.797 195.544 292.389C194.584 290.949 194.104 289.269 194.104 287.349V282.789C194.104 281.093 194.552 279.541 195.448 278.133C196.376 276.725 197.592 275.605 199.096 274.773C200.6 273.909 202.264 273.477 204.088 273.477C205.816 273.477 207.4 273.861 208.84 274.629C210.28 275.365 211.432 276.405 212.296 277.749C213.192 279.093 213.64 280.629 213.64 282.357C213.64 283.701 213.432 284.661 213.016 285.237C212.6 285.813 212.056 286.165 211.384 286.293C210.712 286.421 210.008 286.485 209.272 286.485H199.144V287.589C199.144 289.189 199.72 290.469 200.872 291.429C202.056 292.357 203.56 292.821 205.384 292.821C206.504 292.821 207.416 292.661 208.12 292.341C208.824 292.021 209.416 291.717 209.896 291.429C210.376 291.141 210.824 290.997 211.24 290.997C211.656 290.997 212.008 291.125 212.296 291.381C212.584 291.637 212.808 291.941 212.968 292.293C213.128 292.645 213.208 292.965 213.208 293.253C213.208 293.733 212.872 294.261 212.2 294.837C211.56 295.413 210.648 295.909 209.464 296.325C208.28 296.709 206.872 296.901 205.24 296.901ZM199.144 283.365H207.112C207.816 283.365 208.28 283.269 208.504 283.077C208.76 282.885 208.888 282.501 208.888 281.925C208.888 281.093 208.68 280.325 208.264 279.621C207.848 278.885 207.272 278.325 206.536 277.941C205.8 277.525 204.968 277.317 204.04 277.317C203.144 277.317 202.328 277.509 201.592 277.893C200.856 278.277 200.264 278.805 199.816 279.477C199.368 280.149 199.144 280.933 199.144 281.829V283.365ZM220.245 296.517C219.509 296.517 218.901 296.341 218.421 295.989C217.973 295.637 217.749 295.253 217.749 294.837V275.397C217.749 274.917 217.973 274.533 218.421 274.245C218.901 273.925 219.509 273.765 220.245 273.765C220.853 273.765 221.381 273.925 221.829 274.245C222.277 274.533 222.501 274.917 222.501 275.397V277.125C222.981 276.197 223.765 275.365 224.853 274.629C225.973 273.861 227.333 273.477 228.933 273.477C230.437 273.477 231.813 273.909 233.061 274.773C234.341 275.605 235.365 276.741 236.133 278.181C236.901 279.589 237.285 281.173 237.285 282.933V294.837C237.285 295.381 237.013 295.797 236.469 296.085C235.957 296.373 235.381 296.517 234.741 296.517C234.165 296.517 233.605 296.373 233.061 296.085C232.517 295.797 232.245 295.381 232.245 294.837V282.933C232.245 282.101 232.021 281.301 231.573 280.533C231.157 279.765 230.581 279.141 229.845 278.661C229.109 278.181 228.293 277.941 227.397 277.941C226.629 277.941 225.893 278.149 225.189 278.565C224.485 278.949 223.909 279.509 223.461 280.245C223.013 280.981 222.789 281.877 222.789 282.933V294.837C222.789 295.253 222.533 295.637 222.021 295.989C221.541 296.341 220.949 296.517 220.245 296.517ZM262.625 296.517C261.985 296.517 261.393 296.373 260.849 296.085C260.337 295.797 260.081 295.381 260.081 294.837V282.693C260.081 282.501 260.033 282.325 259.937 282.165L250.001 264.261C249.937 264.101 249.889 263.973 249.857 263.877C249.857 263.749 249.857 263.637 249.857 263.541C249.857 263.125 250.033 262.773 250.385 262.485C250.737 262.165 251.153 261.909 251.633 261.717C252.145 261.525 252.625 261.429 253.073 261.429C253.489 261.429 253.809 261.525 254.033 261.717C254.289 261.909 254.513 262.197 254.705 262.581L262.625 277.797L270.497 262.581C270.721 262.197 270.945 261.909 271.169 261.717C271.425 261.525 271.761 261.429 272.177 261.429C272.625 261.429 273.089 261.525 273.569 261.717C274.081 261.909 274.513 262.165 274.865 262.485C275.217 262.773 275.393 263.125 275.393 263.541C275.393 263.637 275.377 263.749 275.345 263.877C275.345 263.973 275.297 264.101 275.201 264.261L265.313 282.165C265.217 282.325 265.169 282.501 265.169 282.693V294.837C265.169 295.381 264.897 295.797 264.353 296.085C263.841 296.373 263.265 296.517 262.625 296.517ZM284.084 296.901C281.908 296.901 279.988 296.501 278.324 295.701C276.66 294.901 275.348 293.797 274.388 292.389C273.428 290.949 272.948 289.269 272.948 287.349V282.789C272.948 281.093 273.396 279.541 274.292 278.133C275.22 276.725 276.436 275.605 277.94 274.773C279.444 273.909 281.108 273.477 282.932 273.477C284.66 273.477 286.244 273.861 287.684 274.629C289.124 275.365 290.276 276.405 291.14 277.749C292.036 279.093 292.484 280.629 292.484 282.357C292.484 283.701 292.276 284.661 291.86 285.237C291.444 285.813 290.9 286.165 290.228 286.293C289.556 286.421 288.852 286.485 288.116 286.485H277.988V287.589C277.988 289.189 278.564 290.469 279.716 291.429C280.9 292.357 282.404 292.821 284.228 292.821C285.348 292.821 286.26 292.661 286.964 292.341C287.668 292.021 288.26 291.717 288.74 291.429C289.22 291.141 289.668 290.997 290.084 290.997C290.5 290.997 290.852 291.125 291.14 291.381C291.428 291.637 291.652 291.941 291.812 292.293C291.972 292.645 292.052 292.965 292.052 293.253C292.052 293.733 291.716 294.261 291.044 294.837C290.404 295.413 289.492 295.909 288.308 296.325C287.124 296.709 285.716 296.901 284.084 296.901ZM277.988 283.365H285.956C286.66 283.365 287.124 283.269 287.348 283.077C287.604 282.885 287.732 282.501 287.732 281.925C287.732 281.093 287.524 280.325 287.108 279.621C286.692 278.885 286.116 278.325 285.38 277.941C284.644 277.525 283.812 277.317 282.884 277.317C281.988 277.317 281.172 277.509 280.436 277.893C279.7 278.277 279.108 278.805 278.66 279.477C278.212 280.149 277.988 280.933 277.988 281.829V283.365ZM304.897 296.517C302.177 296.517 300.097 295.925 298.657 294.741C297.217 293.525 296.497 291.621 296.497 289.029V264.981C296.497 264.501 296.753 264.117 297.265 263.829C297.809 263.509 298.385 263.349 298.993 263.349C299.601 263.349 300.177 263.509 300.721 263.829C301.265 264.117 301.537 264.501 301.537 264.981V273.765H307.393C307.841 273.765 308.177 273.957 308.401 274.341C308.657 274.725 308.785 275.157 308.785 275.637C308.785 276.117 308.657 276.549 308.401 276.933C308.177 277.317 307.841 277.509 307.393 277.509H301.537V289.029C301.537 290.181 301.777 290.997 302.257 291.477C302.769 291.957 303.649 292.197 304.897 292.197H306.529C307.265 292.197 307.809 292.421 308.161 292.869C308.545 293.285 308.737 293.781 308.737 294.357C308.737 294.901 308.545 295.397 308.161 295.845C307.809 296.293 307.265 296.517 306.529 296.517H304.897Z" fill="white"/>
</svg>
