<svg width="300" height="169" viewBox="0 0 300 169" fill="none" xmlns="http://www.w3.org/2000/svg">
<rect width="300" height="168.75" fill="#353A3D"/>
<path d="M110.611 73.2005H114.821V98H110.611V73.2005ZM198.881 73.2005H203.09V98H198.881V73.2005Z" fill="#12C65A"/>
<path d="M123.532 79.4384C123.532 80.4865 123.921 81.2472 124.699 81.7206C125.476 82.2953 127.133 82.887 129.669 83.4956C132.34 84.138 134.284 85.017 135.501 86.1327C136.752 87.2485 137.377 88.8544 137.377 90.9506C137.377 93.1483 136.549 94.9233 134.892 96.2757C133.269 97.6281 131.139 98.3043 128.502 98.3043C124.682 98.3043 121.233 96.9519 118.156 94.2471L120.794 91.1028C123.363 93.3004 125.966 94.3993 128.604 94.3993C129.922 94.3993 130.987 94.1119 131.799 93.5371C132.61 92.9285 133.016 92.1509 133.016 91.2042C133.016 90.2575 132.644 89.5137 131.9 88.9728C131.19 88.4318 129.905 87.9416 128.046 87.502C124.834 86.7582 122.602 85.8792 121.351 84.8649C119.898 83.7492 119.171 82.0418 119.171 79.7427C119.171 77.5112 119.982 75.77 121.605 74.5191C123.228 73.2343 125.307 72.5919 127.843 72.5919C131.258 72.5919 134.182 73.5893 136.617 75.5841L134.385 78.7284C133.641 78.0522 132.644 77.5112 131.393 77.1055C130.142 76.666 128.908 76.4462 127.691 76.4462C126.44 76.4462 125.425 76.7167 124.648 77.2577C123.904 77.7648 123.532 78.4917 123.532 79.4384ZM217.836 77.0041V98H213.627V77.0041H206.121V73.2005H225.342V77.0041H217.836Z" fill="#D12266"/>
<path d="M144.595 92.3707L142.11 98H137.647L148.602 73.2005H153.065L163.968 98H159.505L157.02 92.3707H144.595ZM155.347 88.4656L150.833 78.272L146.32 88.4656H155.347Z" fill="#762FE8"/>
<path d="M192.531 91.1535L195.219 93.8921C192.649 96.8336 189.471 98.3043 185.684 98.3043C181.931 98.3043 178.804 97.104 176.302 94.7035C173.834 92.2692 172.6 89.2094 172.6 85.5242C172.6 81.8051 173.868 78.7284 176.403 76.2941C178.939 73.826 182.134 72.5919 185.988 72.5919C189.775 72.5919 192.97 74.0119 195.574 76.8519L192.936 79.7427C191.753 78.5932 190.637 77.7986 189.589 77.3591C188.541 76.9196 187.307 76.6998 185.887 76.6998C183.351 76.6998 181.221 77.5112 179.497 79.1341C177.806 80.757 176.961 82.8194 176.961 85.3213C176.961 87.7894 177.806 89.8856 179.497 91.6099C181.187 93.3342 183.199 94.1964 185.532 94.1964C186.952 94.1964 188.169 93.9597 189.183 93.4864C190.232 93.013 191.347 92.2354 192.531 91.1535ZM256.322 92.3707L253.837 98H249.374L260.328 73.2005H264.791L275.695 98H271.232L268.747 92.3707H256.322ZM267.073 88.4656L262.56 78.272L258.046 88.4656H267.073Z" fill="#00A8FF"/>
<path d="M242.906 88.9728L249.398 98H244.073L238.139 89.6321H232.662V98H228.452V73.2005H237.683C241.435 73.2005 244.123 73.8429 245.746 75.1276C247.403 76.3786 248.231 78.4241 248.231 81.2641C248.231 85.3551 246.456 87.9247 242.906 88.9728ZM237.835 85.8792C240.168 85.8792 241.774 85.5242 242.653 84.8142C243.532 84.1042 243.971 82.9039 243.971 81.2134C243.971 79.5905 243.532 78.4917 242.653 77.917C241.774 77.3084 240.201 77.0041 237.936 77.0041H232.662V85.8792H237.835Z" fill="#7F00FF"/>
<path fill-rule="evenodd" clip-rule="evenodd" d="M46.5684 57.3925L46.5428 57.3843C46.4836 57.1053 46.3159 56.862 46.0551 56.7235C46.0318 56.711 46.0082 56.6997 45.9842 56.6895C45.9687 56.6786 45.9524 56.6687 45.9354 56.6598C45.8131 56.5948 45.6687 56.5814 45.5125 56.6129C45.1361 56.6415 44.7633 56.8694 44.5485 57.2431L44.5432 57.2525C44.3717 57.4401 44.2089 57.662 44.0659 57.9108C44.0333 57.9677 44.0023 58.0246 43.9732 58.0817C43.8994 58.1852 43.8291 58.2949 43.7629 58.4099C43.6929 58.5316 43.631 58.6539 43.5771 58.7752C43.5547 58.7999 43.5323 58.8248 43.51 58.85C42.998 59.8436 42.573 60.8398 42.229 61.8341C42.2281 61.8112 42.2272 61.7883 42.2264 61.7654C38.8059 67.8375 39.7864 76.7327 44.5115 81.8411C49.0189 86.7154 55.3187 86.3968 59.1051 81.351C60.5118 79.9135 61.3535 78.0872 61.3535 76.0995C61.3546 75.0918 61.1345 74.0981 60.7106 73.1652C59.1551 71.067 57.3669 69.7252 56.5385 69.1797C52.5904 66.5792 50.1142 64.2773 48.6144 62.261L48.6142 62.2616L48.6141 62.2617C48.6042 62.286 48.5943 62.3103 48.5841 62.3344C48.5827 62.294 48.5809 62.2537 48.5791 62.2134C47.219 60.37 46.6758 58.7663 46.5684 57.3925Z" fill="#12C65A"/>
<path fill-rule="evenodd" clip-rule="evenodd" d="M56.051 57.3925L56.0766 57.3843C56.1359 57.1053 56.3036 56.862 56.5643 56.7235C56.5876 56.711 56.6112 56.6997 56.6352 56.6895C56.6508 56.6786 56.6671 56.6687 56.6841 56.6598C56.8063 56.5948 56.9507 56.5814 57.107 56.6129C57.4833 56.6415 57.8561 56.8694 58.0709 57.2431L58.0763 57.2525C58.2477 57.4401 58.4106 57.662 58.5536 57.9108C58.5862 57.9677 58.6171 58.0246 58.6463 58.0817C58.72 58.1852 58.7904 58.2949 58.8566 58.4099C58.9266 58.5316 58.9885 58.6539 59.0424 58.7752C59.0647 58.7999 59.0871 58.8248 59.1095 58.85C59.6215 59.8436 60.0465 60.8399 60.3905 61.8343C60.3914 61.8113 60.3923 61.7884 60.3931 61.7654C63.8136 67.8375 62.8331 76.7327 58.108 81.8411C53.6007 86.7153 47.301 86.3968 43.5145 81.3512C42.1078 79.9137 41.266 78.0873 41.266 76.0995C41.2649 75.0918 41.4849 74.098 41.9089 73.1652C43.4643 71.067 45.2526 69.7252 46.081 69.1797C50.0291 66.5792 52.5053 64.2773 54.0051 62.261L54.0053 62.2616C54.0152 62.2859 54.0252 62.3102 54.0353 62.3344C54.0367 62.294 54.0385 62.2537 54.0403 62.2134C55.4005 60.37 55.9437 58.7663 56.051 57.3925Z" fill="#7F00FF"/>
<g filter="url(#filter0_d_84_2)">
<path fill-rule="evenodd" clip-rule="evenodd" d="M50.7515 78.5508C51.1585 89.1693 54.5571 100.333 60.8385 106.364C62.5849 107.686 64.6493 108.631 66.8469 109.113C72.0325 110.258 77.0392 108.693 79.9444 105.452C81.7683 101.752 82.12 97.6394 82.174 96.1286C82.3609 90.9178 82.9293 87.2604 83.6921 84.6849C83.6794 84.6877 83.6667 84.6908 83.6539 84.6936C83.6463 84.6954 83.6384 84.6972 83.6307 84.699C83.6574 84.6741 83.6838 84.6492 83.7101 84.6242C84.4117 82.2795 85.2754 80.8402 86.1568 79.9432C86.1554 79.9336 86.154 79.9239 86.1524 79.9144C86.3167 79.6971 86.4139 79.3988 86.4038 79.0738C86.4029 79.0448 86.4013 79.016 86.3986 78.9875C86.3997 78.9668 86.3999 78.9456 86.3994 78.9245C86.3947 78.7722 86.3466 78.629 86.2635 78.5009C86.0955 78.1644 85.7946 77.9466 85.4583 77.9618L85.4497 77.9622C85.2559 77.9103 85.042 77.8861 84.8182 77.8963C84.767 77.8987 84.7163 77.9026 84.6664 77.9083C84.5678 77.8992 84.4661 77.8967 84.3625 77.9013C84.2531 77.9064 84.1463 77.9191 84.0434 77.9389C84.018 77.9321 83.9924 77.9257 83.9666 77.9192C75.8661 78.8096 70.5875 86.9012 68.7114 95.4614C68.4148 92.2091 68.2901 88.2209 68.4048 83.3254C68.4279 82.3446 68.4193 80.6323 68.2387 78.5508H65.0323C65.0223 78.6584 65.0122 78.7577 65.0026 78.8485C64.3892 84.5954 64.369 88.7088 64.6944 91.6715L64.6643 91.657L64.6391 91.6448C64.6486 91.6593 64.6582 91.6738 64.6677 91.6885L64.6853 91.7153L64.7021 91.7413C65.0054 94.4394 65.5973 96.1747 66.2881 97.3187C66.2863 97.325 66.2845 97.3311 66.2827 97.3373L66.2793 97.3495C66.4005 97.6176 66.4465 97.9625 66.388 98.3168C66.3828 98.3485 66.3769 98.3797 66.3701 98.4104C66.3679 98.4335 66.3649 98.4566 66.3611 98.4797C66.3337 98.646 66.267 98.794 66.1696 98.9196C65.9611 99.2579 65.6463 99.4418 65.3333 99.364L65.3254 99.3618C65.1357 99.3837 64.9315 99.3711 64.7232 99.3192C64.6754 99.3074 64.6287 99.2938 64.5827 99.2784C64.4887 99.2704 64.3932 99.2546 64.2969 99.2307C64.1949 99.2054 64.0968 99.172 64.0032 99.1315C63.9925 99.1328 63.9819 99.1338 63.9712 99.1349C63.9672 99.1353 63.9633 99.1356 63.9594 99.1362C63.9554 99.1365 63.9515 99.1369 63.9477 99.1372L63.9282 99.139C56.8315 96.8081 53.115 87.7968 52.3703 78.5508H50.7515Z" fill="#8000FF"/>
</g>
<g filter="url(#filter1_d_84_2)">
<path fill-rule="evenodd" clip-rule="evenodd" d="M53.653 78.5508C53.246 89.1693 49.8474 100.333 43.5661 106.364C41.8197 107.686 39.7553 108.631 37.5577 109.113C32.372 110.258 27.3653 108.693 24.4601 105.452C22.6362 101.752 22.2846 97.6394 22.2305 96.1286C22.0437 90.9178 21.4753 87.2604 20.7125 84.6849C20.7252 84.6877 20.7379 84.6908 20.7506 84.6936C20.7583 84.6954 20.7662 84.6972 20.7739 84.699C20.7472 84.6741 20.7207 84.6492 20.6944 84.6242C19.9928 82.2795 19.1291 80.8402 18.2476 79.9432C18.2491 79.9336 18.2506 79.9239 18.2522 79.9144C18.0879 79.6971 17.9908 79.3988 18.0007 79.0738C18.0016 79.0448 18.0033 79.016 18.0058 78.9875C18.0048 78.9668 18.0046 78.9456 18.0053 78.9245C18.0099 78.7722 18.0581 78.629 18.141 78.5009C18.3092 78.1644 18.6099 77.9466 18.9462 77.9618L18.9548 77.9622C19.1487 77.9103 19.3625 77.8861 19.5864 77.8963C19.6376 77.8987 19.6882 77.9026 19.7381 77.9083C19.8368 77.8992 19.9384 77.8967 20.0421 77.9013C20.1514 77.9064 20.2583 77.9191 20.3612 77.9389C20.3866 77.9321 20.4122 77.9257 20.4379 77.9192C28.5385 78.8096 33.817 86.9012 35.6932 95.4614C35.9897 92.2091 36.1145 88.2209 35.9998 83.3254C35.9767 82.3446 35.9853 80.6323 36.1658 78.5508H39.3723C39.3823 78.6584 39.3923 78.7577 39.402 78.8485C40.0153 84.5954 40.0355 88.7088 39.7102 91.6715L39.7402 91.657L39.7655 91.6448C39.756 91.6593 39.7463 91.6738 39.7368 91.6885L39.7193 91.7153L39.7025 91.7413C39.3991 94.4394 38.8073 96.1747 38.1164 97.3187C38.1182 97.325 38.12 97.3311 38.1218 97.3373L38.1252 97.3495C38.004 97.6176 37.9581 97.9625 38.0166 98.3168C38.0218 98.3485 38.0277 98.3797 38.0345 98.4104C38.0366 98.4335 38.0397 98.4566 38.0434 98.4797C38.0708 98.646 38.1376 98.794 38.2349 98.9196C38.4434 99.2579 38.7582 99.4418 39.0712 99.364L39.0791 99.3618C39.2688 99.3837 39.473 99.3711 39.6814 99.3192C39.7291 99.3074 39.776 99.2938 39.8218 99.2784C39.9158 99.2704 40.0114 99.2546 40.1077 99.2307C40.2097 99.2054 40.3078 99.172 40.4014 99.1315C40.4121 99.1328 40.4227 99.1338 40.4334 99.1349C40.4373 99.1353 40.4413 99.1356 40.4452 99.1362C40.4491 99.1365 40.4531 99.1369 40.4568 99.1372L40.4763 99.139C47.573 96.8081 51.2895 87.7968 52.0342 78.5508H53.653Z" fill="#12C65A"/>
</g>
<path fill-rule="evenodd" clip-rule="evenodd" d="M40.1255 61.3299L40.0999 61.3217C40.0407 61.0427 39.873 60.7995 39.6122 60.661C39.5889 60.6484 39.5653 60.6371 39.5413 60.6269C39.5258 60.616 39.5095 60.6062 39.4925 60.5972C39.3702 60.5323 39.2258 60.5188 39.0696 60.5503C38.6932 60.579 38.3204 60.8068 38.1056 61.1805L38.1003 61.19C37.9288 61.3775 37.7659 61.5995 37.623 61.8482C37.5904 61.9052 37.5594 61.9621 37.5302 62.0192C37.4565 62.1226 37.3862 62.2323 37.32 62.3474C37.25 62.4691 37.1881 62.5913 37.1342 62.7127C37.1118 62.7374 37.0894 62.7622 37.0671 62.7875C36.555 63.781 36.13 64.7773 35.786 65.7717C35.7851 65.7487 35.7843 65.7257 35.7834 65.7027C32.363 71.7748 33.3435 80.6699 38.0685 85.7784C42.576 90.6528 48.876 90.3341 52.6624 85.2879C54.0689 83.8505 54.9105 82.0243 54.9105 80.0367C54.9116 79.0292 54.6916 78.0356 54.2678 77.1028C52.7123 75.0045 50.924 73.6626 50.0956 73.1171C46.1475 70.5167 43.6712 68.2147 42.1715 66.1985L42.1713 66.199C42.1613 66.2234 42.1514 66.2477 42.1412 66.2718C42.1398 66.2314 42.138 66.1911 42.1362 66.1509C40.776 64.3075 40.2329 62.7037 40.1255 61.3299Z" fill="#D12266"/>
<path fill-rule="evenodd" clip-rule="evenodd" d="M63.7468 60.793L63.7724 60.7847C63.8317 60.5057 63.9993 60.2625 64.2601 60.124C64.2834 60.1114 64.307 60.1002 64.331 60.09C64.3466 60.079 64.3628 60.0692 64.3798 60.0603C64.5021 59.9953 64.6465 59.9819 64.8027 60.0134C65.1791 60.042 65.5519 60.2698 65.7667 60.6435L65.772 60.653C65.9435 60.8406 66.1064 61.0625 66.2494 61.3113C66.2819 61.3682 66.3129 61.4251 66.3421 61.4822C66.4158 61.5856 66.4861 61.6953 66.5524 61.8104C66.6223 61.9321 66.6843 62.0543 66.7381 62.1757C66.7605 62.2004 66.7829 62.2253 66.8052 62.2505C67.3173 63.2441 67.7423 64.2404 68.0863 65.2347C68.0872 65.2118 68.088 65.1888 68.0889 65.1657C71.5093 71.2379 70.5289 80.133 65.8038 85.2415C61.2964 90.1157 54.9966 89.7972 51.2102 84.7514C49.8035 83.3139 48.9618 81.4876 48.9618 79.4998C48.9607 78.4922 49.1808 77.4984 49.6047 76.5655C51.1602 74.4674 52.9484 73.1256 53.7768 72.5801C57.7248 69.9797 60.2011 67.6778 61.7008 65.6615L61.7011 65.662L61.7011 65.6621C61.711 65.6864 61.721 65.7107 61.7311 65.7349C61.7325 65.6944 61.7343 65.6541 61.7361 65.6139C63.0963 63.7705 63.6394 62.1667 63.7468 60.793Z" fill="#00A8FF"/>
<defs>
<filter id="filter0_d_84_2" x="50.0356" y="77.894" width="37.0848" height="33.0239" filterUnits="userSpaceOnUse" color-interpolation-filters="sRGB">
<feFlood flood-opacity="0" result="BackgroundImageFix"/>
<feColorMatrix in="SourceAlpha" type="matrix" values="0 0 0 0 0 0 0 0 0 0 0 0 0 0 0 0 0 0 127 0" result="hardAlpha"/>
<feOffset dy="0.715881"/>
<feGaussianBlur stdDeviation="0.35794"/>
<feComposite in2="hardAlpha" operator="out"/>
<feColorMatrix type="matrix" values="0 0 0 0 0 0 0 0 0 0 0 0 0 0 0 0 0 0 0.25 0"/>
<feBlend mode="normal" in2="BackgroundImageFix" result="effect1_dropShadow_84_2"/>
<feBlend mode="normal" in="SourceGraphic" in2="effect1_dropShadow_84_2" result="shape"/>
</filter>
<filter id="filter1_d_84_2" x="17.2841" y="77.894" width="37.0848" height="33.0239" filterUnits="userSpaceOnUse" color-interpolation-filters="sRGB">
<feFlood flood-opacity="0" result="BackgroundImageFix"/>
<feColorMatrix in="SourceAlpha" type="matrix" values="0 0 0 0 0 0 0 0 0 0 0 0 0 0 0 0 0 0 127 0" result="hardAlpha"/>
<feOffset dy="0.715881"/>
<feGaussianBlur stdDeviation="0.35794"/>
<feComposite in2="hardAlpha" operator="out"/>
<feColorMatrix type="matrix" values="0 0 0 0 0 0 0 0 0 0 0 0 0 0 0 0 0 0 0.25 0"/>
<feBlend mode="normal" in2="BackgroundImageFix" result="effect1_dropShadow_84_2"/>
<feBlend mode="normal" in="SourceGraphic" in2="effect1_dropShadow_84_2" result="shape"/>
</filter>
</defs>
</svg>
