<svg width="185" height="144" viewBox="0 0 185 144" fill="none" xmlns="http://www.w3.org/2000/svg">
<path fill-rule="evenodd" clip-rule="evenodd" d="M77.4087 2.1008C77.386 2.09325 77.3638 2.08616 77.3412 2.07907C77.1848 1.34259 76.7422 0.700587 76.0539 0.334944C75.9924 0.301876 75.9301 0.27212 75.8668 0.245193C75.8257 0.216376 75.7827 0.190393 75.7378 0.166773C75.4152 -0.00471067 75.0339 -0.0401453 74.6215 0.0429983C73.6281 0.118583 72.644 0.719956 72.0771 1.70634L72.063 1.73138C71.6104 2.22647 71.1805 2.81225 70.8031 3.46889C70.7171 3.61912 70.6353 3.76935 70.5583 3.92004C70.3637 4.19309 70.1781 4.48268 70.0033 4.78644C69.8186 5.10767 69.6551 5.43033 69.5129 5.75062C69.4539 5.81581 69.3948 5.88148 69.3358 5.94809C67.9842 8.5706 66.8624 11.2003 65.9544 13.8249C65.9521 13.7645 65.9498 13.704 65.9476 13.6435C56.919 29.6714 59.5071 53.1509 71.9794 66.6351C83.8773 79.5016 100.507 78.6603 110.501 65.3401C114.214 61.5459 116.435 56.7256 116.435 51.4792C116.438 48.8197 115.857 46.1967 114.738 43.7345C110.633 38.196 105.912 34.6539 103.726 33.214C93.3043 26.3499 86.768 20.2738 82.8093 14.9517L82.8088 14.9528C82.7825 15.0171 82.7562 15.0815 82.7294 15.1454C82.7257 15.0386 82.7209 14.9323 82.7162 14.826C79.1259 9.96024 77.6922 5.727 77.4087 2.1008Z" fill="#12C65A"/>
<path fill-rule="evenodd" clip-rule="evenodd" d="M102.439 2.1008C102.462 2.09325 102.484 2.08616 102.507 2.07907C102.663 1.34259 103.106 0.700587 103.794 0.334944C103.855 0.301876 103.918 0.27212 103.981 0.245193C104.022 0.216376 104.065 0.190393 104.11 0.166773C104.433 -0.00471067 104.814 -0.0401453 105.226 0.0429983C106.22 0.118583 107.204 0.719956 107.771 1.70634L107.785 1.73138C108.237 2.22647 108.667 2.81225 109.045 3.46889C109.131 3.61912 109.212 3.76935 109.289 3.92004C109.484 4.19309 109.67 4.48268 109.844 4.78644C110.029 5.10767 110.193 5.43033 110.335 5.75062C110.394 5.81581 110.453 5.88148 110.512 5.94809C111.864 8.57073 112.985 11.2006 113.893 13.8253C113.896 13.7648 113.898 13.7042 113.9 13.6435C122.929 29.6714 120.341 53.1509 107.869 66.6351C95.9707 79.5014 79.3413 78.6603 69.3467 65.3405C65.6341 61.5463 63.4126 56.7258 63.4126 51.4792C63.4097 48.8196 63.9906 46.1966 65.1094 43.7343C69.2152 38.1959 73.9355 34.6539 76.1222 33.214C86.5435 26.3499 93.0797 20.2738 97.0385 14.9517L97.0389 14.9528L97.0391 14.9531C97.0653 15.0174 97.0916 15.0816 97.1183 15.1454C97.1221 15.0386 97.1268 14.9323 97.1315 14.826C100.722 9.96024 102.156 5.727 102.439 2.1008Z" fill="#7F00FF"/>
<g filter="url(#filter0_d_14_153)">
<path fill-rule="evenodd" clip-rule="evenodd" d="M88.4504 57.95C89.5247 85.9783 98.4957 115.445 115.076 131.365C119.686 134.854 125.135 137.35 130.935 138.621C144.623 141.644 157.839 137.512 165.508 128.957C170.322 119.191 171.25 108.336 171.393 104.348C171.886 90.5937 173.386 80.9396 175.4 74.1412C175.366 74.1488 175.333 74.1568 175.299 74.1644C175.279 74.1691 175.258 74.1738 175.238 74.1786C175.308 74.1129 175.378 74.0472 175.448 73.9811C177.299 67.7921 179.579 63.993 181.906 61.6253C181.902 61.5998 181.898 61.5743 181.894 61.5492C182.328 60.9757 182.584 60.1882 182.558 59.3303C182.555 59.2538 182.551 59.1777 182.544 59.1026C182.547 59.0478 182.547 58.9921 182.546 58.9363C182.534 58.5343 182.407 58.1564 182.187 57.8181C181.744 56.93 180.95 56.3551 180.062 56.3953L180.039 56.3962C179.528 56.2592 178.963 56.1954 178.372 56.2224C178.237 56.2285 178.103 56.2389 177.972 56.254C177.711 56.2299 177.443 56.2233 177.169 56.2356C176.881 56.2488 176.599 56.2824 176.327 56.3348C176.26 56.3168 176.192 56.2998 176.124 56.2828C154.742 58.6331 140.809 79.9915 135.857 102.587C135.074 94.0022 134.745 83.475 135.048 70.5528C135.109 67.964 135.086 63.4441 134.609 57.95H126.146C126.119 58.2339 126.093 58.4961 126.067 58.7356C124.448 73.905 124.395 84.7628 125.254 92.5831L125.174 92.5448L125.108 92.5127C125.133 92.5509 125.158 92.5892 125.183 92.6279L125.23 92.6988L125.274 92.7673C126.075 99.8893 127.637 104.47 129.461 107.489C129.456 107.506 129.451 107.522 129.446 107.539L129.437 107.571C129.757 108.278 129.879 109.189 129.724 110.124C129.71 110.208 129.695 110.29 129.677 110.371C129.671 110.432 129.663 110.493 129.653 110.554C129.581 110.993 129.405 111.383 129.148 111.715C128.597 112.608 127.767 113.094 126.94 112.888L126.919 112.882C126.419 112.94 125.88 112.907 125.33 112.77C125.204 112.739 125.08 112.703 124.959 112.662C124.711 112.641 124.459 112.599 124.205 112.536C123.935 112.469 123.676 112.381 123.429 112.274C123.401 112.278 123.373 112.281 123.345 112.283C123.334 112.284 123.324 112.285 123.314 112.287C123.303 112.288 123.293 112.289 123.283 112.29L123.231 112.294C104.499 106.142 94.6891 82.3554 92.7234 57.95H88.4504Z" fill="#8000FF"/>
</g>
<g filter="url(#filter1_d_14_153)">
<path fill-rule="evenodd" clip-rule="evenodd" d="M96.1091 57.95C95.0349 85.9783 86.0639 115.445 69.4838 131.365C64.8741 134.854 59.4248 137.35 53.6242 138.621C39.9362 141.644 26.7206 137.512 19.052 128.957C14.2377 119.191 13.3094 108.336 13.1668 104.348C12.6736 90.5937 11.1732 80.9396 9.15979 74.1412C9.19333 74.1488 9.22688 74.1568 9.26042 74.1644C9.28073 74.1691 9.30152 74.1738 9.32183 74.1786C9.25144 74.1129 9.18152 74.0472 9.11208 73.9811C7.26025 67.7921 4.98027 63.993 2.65361 61.6253C2.65749 61.5998 2.66155 61.5743 2.66571 61.5492C2.23199 60.9757 1.97562 60.1882 2.00184 59.3303C2.00415 59.2538 2.00873 59.1777 2.01539 59.1026C2.0127 59.0478 2.01218 58.9921 2.01388 58.9363C2.02617 58.5343 2.1532 58.1564 2.37225 57.8181C2.81603 56.93 3.60991 56.3551 4.49761 56.3953L4.52014 56.3962C5.03214 56.2592 5.59638 56.1954 6.18727 56.2224C6.32257 56.2285 6.45616 56.2389 6.58782 56.254C6.84831 56.2299 7.11649 56.2233 7.39016 56.2356C7.6788 56.2488 7.96083 56.2824 8.23246 56.3348C8.29954 56.3168 8.3671 56.2998 8.43512 56.2828C29.8172 58.6331 43.7504 79.9915 48.7026 102.587C49.4854 94.0022 49.8147 83.475 49.5119 70.5528C49.4509 67.964 49.4736 63.4441 49.9502 57.95H58.4139C58.4403 58.2339 58.4668 58.4961 58.4923 58.7356C60.1113 73.905 60.1646 84.7628 59.3058 92.5831L59.3852 92.5448L59.4518 92.5127C59.4267 92.5509 59.4012 92.5892 59.3762 92.6279L59.3299 92.6988L59.2855 92.7673C58.4848 99.8893 56.9225 104.47 55.099 107.489C55.1037 107.506 55.1085 107.522 55.1132 107.539L55.1222 107.571C54.8023 108.278 54.6809 109.189 54.8354 110.124C54.8491 110.208 54.8647 110.29 54.8826 110.371C54.8883 110.432 54.8964 110.493 54.9063 110.554C54.9785 110.993 55.1548 111.383 55.4117 111.715C55.9621 112.608 56.7931 113.094 57.6193 112.888L57.6401 112.882C58.1408 112.94 58.6799 112.907 59.2297 112.77C59.3559 112.739 59.4796 112.703 59.6006 112.662C59.8486 112.641 60.1009 112.599 60.355 112.536C60.6243 112.469 60.8832 112.381 61.1302 112.274C61.1586 112.278 61.1865 112.281 61.2148 112.283C61.2252 112.284 61.2356 112.285 61.246 112.287C61.2564 112.288 61.2668 112.289 61.2767 112.29L61.3282 112.294C80.0605 106.142 89.8705 82.3554 91.8362 57.95H96.1091Z" fill="#12C65A"/>
</g>
<path fill-rule="evenodd" clip-rule="evenodd" d="M60.4022 12.4939C60.3795 12.4863 60.3573 12.4792 60.3347 12.4721C60.1783 11.7357 59.7357 11.0937 59.0474 10.728C58.9859 10.6949 58.9236 10.6652 58.8603 10.6383C58.8192 10.6094 58.7762 10.5835 58.7313 10.5598C58.4087 10.3884 58.0274 10.3529 57.615 10.4361C56.6215 10.5116 55.6375 11.113 55.0706 12.0994L55.0565 12.1244C54.6039 12.6195 54.174 13.2053 53.7965 13.862C53.7106 14.0122 53.6288 14.1624 53.5518 14.3131C53.3572 14.5862 53.1716 14.8757 52.9968 15.1795C52.8121 15.5007 52.6486 15.8234 52.5064 16.1437C52.4474 16.2089 52.3883 16.2745 52.3293 16.3412C50.9776 18.9638 49.8558 21.5936 48.9478 24.2184C48.9455 24.1577 48.9432 24.097 48.941 24.0363C39.9124 40.0642 42.5004 63.5436 54.9727 77.0279C66.8707 89.8943 83.5003 89.053 93.4948 75.7328C97.2072 71.9387 99.4285 67.1184 99.4285 61.872C99.4314 59.2125 98.8506 56.5896 97.7318 54.1274C93.626 48.589 88.9057 45.047 86.7191 43.6071C76.2978 36.743 69.7615 30.6669 65.8028 25.3448L65.8023 25.3459C65.776 25.4102 65.7497 25.4746 65.7229 25.5384C65.7192 25.4317 65.7144 25.3254 65.7097 25.2191C62.1194 20.3533 60.6857 16.1201 60.4022 12.4939Z" fill="#D12266"/>
<path fill-rule="evenodd" clip-rule="evenodd" d="M122.753 11.0765C122.775 11.069 122.797 11.0619 122.82 11.0548C122.976 10.3183 123.419 9.6763 124.107 9.31065C124.169 9.27758 124.231 9.24783 124.295 9.2209C124.336 9.19208 124.379 9.1661 124.423 9.14248C124.746 8.971 125.127 8.93556 125.54 9.01871C126.533 9.09429 127.517 9.69566 128.084 10.682L128.098 10.7071C128.551 11.2022 128.981 11.788 129.358 12.4446C129.444 12.5948 129.526 12.7451 129.603 12.8958C129.798 13.1688 129.983 13.4584 130.158 13.7621C130.343 14.0834 130.506 14.406 130.648 14.7263C130.707 14.7915 130.766 14.8572 130.826 14.9238C132.177 17.5464 133.299 20.1762 134.207 22.801C134.209 22.7403 134.212 22.6797 134.214 22.6189C143.242 38.6468 140.654 62.1263 128.182 75.6105C116.285 88.4764 99.656 87.6358 89.6613 74.3173C85.9481 70.5229 83.7262 65.7021 83.7262 60.4549C83.7233 57.7953 84.3041 55.1724 85.4229 52.7101C89.5287 47.1716 94.2491 43.6296 96.4357 42.1897C106.857 35.3256 113.393 29.2495 117.352 23.9274L117.352 23.9285L117.353 23.9288C117.379 23.9931 117.405 24.0573 117.432 24.1211C117.436 24.0143 117.44 23.908 117.445 23.8017C121.035 18.9359 122.469 14.7027 122.753 11.0765Z" fill="#00A8FF"/>
<defs>
<filter id="filter0_d_14_153" x="86.5608" y="56.2163" width="97.8884" height="87.1695" filterUnits="userSpaceOnUse" color-interpolation-filters="sRGB">
<feFlood flood-opacity="0" result="BackgroundImageFix"/>
<feColorMatrix in="SourceAlpha" type="matrix" values="0 0 0 0 0 0 0 0 0 0 0 0 0 0 0 0 0 0 127 0" result="hardAlpha"/>
<feOffset dy="1.88963"/>
<feGaussianBlur stdDeviation="0.944814"/>
<feComposite in2="hardAlpha" operator="out"/>
<feColorMatrix type="matrix" values="0 0 0 0 0 0 0 0 0 0 0 0 0 0 0 0 0 0 0.25 0"/>
<feBlend mode="normal" in2="BackgroundImageFix" result="effect1_dropShadow_14_153"/>
<feBlend mode="normal" in="SourceGraphic" in2="effect1_dropShadow_14_153" result="shape"/>
</filter>
<filter id="filter1_d_14_153" x="0.110372" y="56.2163" width="97.8884" height="87.1695" filterUnits="userSpaceOnUse" color-interpolation-filters="sRGB">
<feFlood flood-opacity="0" result="BackgroundImageFix"/>
<feColorMatrix in="SourceAlpha" type="matrix" values="0 0 0 0 0 0 0 0 0 0 0 0 0 0 0 0 0 0 127 0" result="hardAlpha"/>
<feOffset dy="1.88963"/>
<feGaussianBlur stdDeviation="0.944814"/>
<feComposite in2="hardAlpha" operator="out"/>
<feColorMatrix type="matrix" values="0 0 0 0 0 0 0 0 0 0 0 0 0 0 0 0 0 0 0.25 0"/>
<feBlend mode="normal" in2="BackgroundImageFix" result="effect1_dropShadow_14_153"/>
<feBlend mode="normal" in="SourceGraphic" in2="effect1_dropShadow_14_153" result="shape"/>
</filter>
</defs>
</svg>
